<svg width="34" height="34" viewBox="0 0 34 34" fill="none" xmlns="http://www.w3.org/2000/svg">
<rect width="34" height="34" rx="8" fill="#E1E5F2"/>
<path d="M18.8902 17.1222L18.1788 17.8335L24.0714 23.726L22.8929 24.9045L17.0003 19.012L11.1078 24.9045L9.92929 23.726L17.7116 15.9437C17.2219 14.7296 17.7281 12.981 19.0628 11.6463C20.6899 10.0191 22.9324 9.62338 24.0714 10.7624C25.2104 11.9014 24.8148 14.1439 23.1875 15.7711C21.8528 17.1058 20.1043 17.6119 18.8902 17.1222ZM10.5185 10.1731L16.1165 15.7711L13.7595 18.1281L10.5185 14.8872C9.2168 13.5854 9.2168 11.4749 10.5185 10.1731ZM22.009 14.5926C23.0568 13.5449 23.2728 12.3207 22.8929 11.9409C22.5131 11.5611 21.2889 11.7771 20.2413 12.8248C19.1936 13.8725 18.9776 15.0966 19.3574 15.4764C19.7372 15.8563 20.9613 15.6403 22.009 14.5926Z" fill="#03071E"/>
</svg>
