<svg width="34" height="34" viewBox="0 0 34 34" fill="none" xmlns="http://www.w3.org/2000/svg">
<rect width="34" height="34" rx="4" fill="#E1E5F2"/>
<path d="M10.3334 12.1191V22.8058L14.554 20.9969L19.5541 23.4969L23.6667 21.7343V11.0476L24.7526 10.5823C24.9642 10.4916 25.2091 10.5896 25.2997 10.8011C25.3219 10.853 25.3334 10.9088 25.3334 10.9652V22.8333L19.5001 25.3333L14.5001 22.8333L9.24755 25.0844C9.03603 25.1751 8.79109 25.0771 8.70044 24.8656C8.67821 24.8138 8.66675 24.7578 8.66675 24.7014V12.8333L10.3334 12.1191ZM20.5356 16.3688L17.0001 19.9044L13.4645 16.3688C11.5119 14.4162 11.5119 11.2504 13.4645 9.2978C15.4172 7.34518 18.583 7.34518 20.5356 9.2978C22.4882 11.2504 22.4882 14.4162 20.5356 16.3688ZM17.0001 17.5474L19.3571 15.1904C20.6588 13.8886 20.6588 11.7781 19.3571 10.4763C18.0553 9.17457 15.9448 9.17457 14.6431 10.4763C13.3413 11.7781 13.3413 13.8886 14.6431 15.1904L17.0001 17.5474Z" fill="#03071E"/>
</svg>
