<svg width="34" height="34" viewBox="0 0 34 34" fill="none" xmlns="http://www.w3.org/2000/svg">
<rect width="34" height="34" rx="8" fill="#E1E5F2"/>
<path d="M19.9167 8.66667C21.5276 8.66667 22.8334 9.97251 22.8334 11.5833C22.8334 11.7723 22.8154 11.9571 22.7811 12.1361L22.7687 12.1912C24.2589 12.6873 25.3334 14.0932 25.3334 15.75C25.3334 17.3118 24.3787 18.6505 23.0212 19.2145L22.1162 24.637C22.0492 25.0388 21.7015 25.3333 21.2942 25.3333H12.706C12.2987 25.3333 11.951 25.0388 11.884 24.637L11.0267 19.495C9.70751 19.4198 8.66675 18.3314 8.66675 17C8.66675 15.9105 9.36364 14.9838 10.336 14.6414L10.3334 14.5C10.3334 11.7386 12.572 9.50001 15.3334 9.50001C16.1011 9.50001 16.8284 9.67301 17.4784 9.98217C17.9987 9.19041 18.8966 8.66667 19.9167 8.66667ZM14.5001 19.5H12.7167L13.4117 23.6667H14.5001V19.5ZM17.8334 19.5H16.1667V23.6667H17.8334V19.5ZM21.2826 19.5H19.5001V23.6667H20.5876L21.2826 19.5ZM15.3334 11.1667C13.5482 11.1667 12.0908 12.57 12.0039 14.3062L11.9998 14.47L12.0024 14.6113C12.0145 15.2844 11.6212 15.8938 11.0139 16.1639L10.8897 16.2133C10.5594 16.3297 10.3334 16.6435 10.3334 17C10.3334 17.4603 10.7065 17.8333 11.1667 17.8333H21.5834C22.734 17.8333 23.6667 16.9006 23.6667 15.75C23.6667 14.5994 22.734 13.6667 21.5834 13.6667C21.3037 13.6667 21.0348 13.721 20.7869 13.8247L20.6407 13.8927C19.8352 14.3078 18.8545 14.0014 18.4217 13.2226L18.3636 13.1082C17.8231 11.9342 16.6482 11.1667 15.3334 11.1667ZM19.9167 10.3333C19.4614 10.3333 19.063 10.5768 18.8444 10.9406C19.2721 11.3621 19.6235 11.8595 19.8775 12.4111C20.2472 12.2207 20.6532 12.0906 21.0824 12.0332C21.1372 11.8939 21.1667 11.7421 21.1667 11.5833C21.1667 10.893 20.6071 10.3333 19.9167 10.3333Z" fill="#03071E"/>
</svg>
