<svg width="34" height="34" viewBox="0 0 34 34" fill="none" xmlns="http://www.w3.org/2000/svg">
<rect width="34" height="34" rx="8" fill="#E1E5F2"/>
<path d="M25.3334 24.5H8.66675V22.8333H9.50008V10.3333C9.50008 9.8731 9.87318 9.5 10.3334 9.5H22.0001C22.4603 9.5 22.8334 9.8731 22.8334 10.3333V14.5H24.5001V22.8333H25.3334V24.5ZM21.1667 22.8333H22.8334V16.1667H17.8334V22.8333H19.5001V17.8333H21.1667V22.8333ZM21.1667 14.5V11.1667H11.1667V22.8333H16.1667V14.5H21.1667ZM12.8334 16.1667H14.5001V17.8333H12.8334V16.1667ZM12.8334 19.5H14.5001V21.1667H12.8334V19.5ZM12.8334 12.8333H14.5001V14.5H12.8334V12.8333Z" fill="#03071E"/>
</svg>
