<svg width="34" height="34" viewBox="0 0 34 34" fill="none" xmlns="http://www.w3.org/2000/svg">
<rect width="34" height="34" rx="8" fill="#E1E5F2"/>
<path d="M22.8333 23.6667H11.1667V24.5C11.1667 24.9602 10.7936 25.3333 10.3333 25.3333H9.5C9.03977 25.3333 8.66667 24.9602 8.66667 24.5V18.25L7.63122 17.9912C7.26025 17.8984 7 17.5651 7 17.1827V16.5833C7 16.3532 7.18655 16.1667 7.41667 16.1667H8.66667L10.7338 11.3435C10.9964 10.7307 11.5989 10.3333 12.2657 10.3333H21.7343C22.4011 10.3333 23.0036 10.7307 23.2663 11.3435L25.3333 16.1667H26.5833C26.8134 16.1667 27 16.3532 27 16.5833V17.1827C27 17.5651 26.7397 17.8984 26.3687 17.9912L25.3333 18.25V24.5C25.3333 24.9602 24.9602 25.3333 24.5 25.3333H23.6667C23.2064 25.3333 22.8333 24.9602 22.8333 24.5V23.6667ZM23.6667 22V17.8333H10.3333V22H23.6667ZM11.5642 16.1667H22.4358C22.5418 16.1667 22.6468 16.1464 22.7453 16.1071C23.1726 15.9362 23.3805 15.4512 23.2095 15.0238L22 12H12L10.7905 15.0238C10.7511 15.1223 10.7309 15.2273 10.7309 15.3333C10.7309 15.7936 11.104 16.1667 11.5642 16.1667ZM11.1667 18.6667C13.0973 18.6667 14.3989 19.2957 15.0716 20.5536C15.1801 20.7565 15.1035 21.0089 14.9006 21.1174C14.8401 21.1497 14.7727 21.1667 14.7041 21.1667H12C11.5398 21.1667 11.1667 20.7936 11.1667 20.3333V18.6667ZM22.8333 18.6667V20.3333C22.8333 20.7936 22.4602 21.1667 22 21.1667H19.2958C19.2273 21.1667 19.1598 21.1497 19.0994 21.1174C18.8965 21.0089 18.82 20.7565 18.9285 20.5536C19.6012 19.2957 20.9028 18.6667 22.8333 18.6667Z" fill="#03071E"/>
</svg>
